<svg width="100%" height="100%" viewBox="0 0 1440 320" xmlns="http://www.w3.org/2000/svg" preserveAspectRatio="none">
  <rect width="100%" height="100%" fill="#f2f2f2" />
  <path fill="#dcdcdc" fill-opacity="1" d="M0,192L80,176C160,160,320,128,480,128C640,128,800,160,960,181.3C1120,203,1280,213,1360,218.7L1440,224L1440,0L1360,0C1280,0,1120,0,960,0C800,0,640,0,480,0C320,0,160,0,80,0L0,0Z"></path>
  <path fill="#e6e6e6" fill-opacity="1" d="M0,224L80,218.7C160,213,320,203,480,197.3C640,192,800,192,960,186.7C1120,181,1280,171,1360,165.3L1440,160L1440,320L1360,320C1280,320,1120,320,960,320C800,320,640,320,480,320C320,320,160,320,80,320L0,320Z"></path>
</svg>
